<svg class="bio-bg" xmlns="http://www.w3.org/2000/svg" viewBox="0 0 1200 900" preserveAspectRatio="xMidYMid slice">
  <g stroke="#2f6b4f" stroke-width="1.2" fill="none">
    <circle cx="120" cy="90" r="4" fill="#2f6b4f"/>
    <circle cx="260" cy="180" r="4" fill="#2f6b4f"/>
    <circle cx="80" cy="260" r="4" fill="#2f6b4f"/>
    <circle cx="320" cy="60" r="4" fill="#2f6b4f"/>
    <line x1="120" y1="90" x2="260" y2="180"/>
    <line x1="120" y1="90" x2="80" y2="260"/>
    <line x1="260" y1="180" x2="320" y2="60"/>
    <line x1="80" y1="260" x2="260" y2="180"/>

    <circle cx="1000" cy="700" r="4" fill="#2f6b4f"/>
    <circle cx="1120" cy="640" r="4" fill="#2f6b4f"/>
    <circle cx="1080" cy="800" r="4" fill="#2f6b4f"/>
    <circle cx="950" cy="820" r="4" fill="#2f6b4f"/>
    <line x1="1000" y1="700" x2="1120" y2="640"/>
    <line x1="1000" y1="700" x2="1080" y2="800"/>
    <line x1="1080" y1="800" x2="950" y2="820"/>

    <path d="M600 0 C 650 40, 550 80, 600 120 C 650 160, 550 200, 600 240" />
    <path d="M600 0 C 550 40, 650 80, 600 120 C 550 160, 650 200, 600 240" />
    <line x1="605" y1="10" x2="595" y2="10"/>
    <line x1="620" y1="50" x2="580" y2="50"/>
    <line x1="605" y1="90" x2="595" y2="90"/>
    <line x1="620" y1="130" x2="580" y2="130"/>
    <line x1="605" y1="170" x2="595" y2="170"/>
  </g>
</svg>
